<svg width="145" height="142" viewBox="0 0 145 142" fill="none" xmlns="http://www.w3.org/2000/svg">
<circle cx="71" cy="71" r="67.5" fill="url(#paint0_radial_4_144)" stroke="url(#paint1_linear_4_144)" stroke-width="7"/>
<path fill-rule="evenodd" clip-rule="evenodd" d="M109.98 91.729C99.4527 99.5215 84.1578 103.658 71.0068 103.658C52.5761 103.658 35.9693 96.8278 23.4262 85.4757C22.4343 84.5778 23.3302 83.3592 24.5141 84.0647C38.0811 91.9534 54.8159 96.7316 72.1267 96.7316C83.8058 96.7316 96.6369 94.2944 108.444 89.2918C110.204 88.4901 111.708 90.4462 109.98 91.729Z" fill="#FF9900"/>
<path fill-rule="evenodd" clip-rule="evenodd" d="M114.364 86.7264C113.02 84.9947 105.468 85.8927 102.045 86.3095C101.021 86.4378 100.861 85.5399 101.789 84.8665C107.804 80.6335 117.691 81.8521 118.843 83.2631C119.995 84.7061 118.523 94.6151 112.892 99.3612C112.028 100.099 111.196 99.714 111.58 98.7519C112.86 95.5772 115.708 88.426 114.364 86.7264Z" fill="#FF9900"/>
<path d="M50.1123 66.9404C50.1123 68.1269 50.2403 69.089 50.4643 69.7945C50.7202 70.5 51.0402 71.2696 51.4882 72.1033C51.6482 72.3599 51.7122 72.6164 51.7122 72.8409C51.7122 73.1616 51.5202 73.4823 51.1042 73.803L49.0884 75.1498C48.8004 75.3422 48.5124 75.4384 48.2564 75.4384C47.9364 75.4384 47.6165 75.2781 47.2965 74.9895C46.8485 74.5084 46.4645 73.9954 46.1446 73.4823C45.8246 72.9371 45.5046 72.3278 45.1526 71.5903C42.6568 74.5405 39.5211 76.0156 35.7453 76.0156C33.0575 76.0156 30.9137 75.246 29.3458 73.7067C27.7779 72.1675 26.978 70.1151 26.978 67.5497C26.978 64.8239 27.9379 62.6112 29.8898 60.9437C31.8416 59.2762 34.4334 58.4424 37.7292 58.4424C38.8171 58.4424 39.937 58.5386 41.1209 58.6989C42.3049 58.8593 43.5208 59.1158 44.8007 59.4044V57.0635C44.8007 54.6263 44.2887 52.9267 43.2968 51.9326C42.2729 50.9385 40.545 50.4575 38.0812 50.4575C36.9612 50.4575 35.8093 50.5857 34.6254 50.8743C33.4415 51.1629 32.2896 51.5157 31.1697 51.9646C30.6577 52.1891 30.2737 52.3174 30.0497 52.3815C29.8258 52.4457 29.6658 52.4777 29.5378 52.4777C29.0898 52.4777 28.8658 52.1571 28.8658 51.4836V49.9123C28.8658 49.3992 28.9298 49.0144 29.0898 48.7899C29.2498 48.5654 29.5378 48.341 29.9857 48.1165C31.1057 47.5393 32.4496 47.0582 34.0175 46.6734C35.5853 46.2565 37.2492 46.0641 39.0091 46.0641C42.8168 46.0641 45.6006 46.93 47.3925 48.6616C49.1524 50.3933 50.0483 53.0229 50.0483 56.5504V66.9404H50.1123ZM37.1212 71.8147C38.1772 71.8147 39.2651 71.6223 40.417 71.2375C41.5689 70.8527 42.5928 70.1472 43.4568 69.1852C43.9687 68.5759 44.3527 67.9024 44.5447 67.1328C44.7367 66.3632 44.8647 65.4332 44.8647 64.3429V62.996C43.9367 62.7716 42.9448 62.5792 41.9209 62.4509C40.897 62.3226 39.905 62.2585 38.9131 62.2585C36.7693 62.2585 35.2014 62.6754 34.1454 63.5412C33.0895 64.407 32.5776 65.6256 32.5776 67.229C32.5776 68.7362 32.9615 69.8586 33.7615 70.6282C34.5294 71.4299 35.6493 71.8147 37.1212 71.8147ZM62.8154 75.2781C62.2394 75.2781 61.8554 75.1819 61.5994 74.9574C61.3435 74.765 61.1195 74.316 60.9275 73.7067L53.408 48.9182C53.2161 48.2768 53.1201 47.8599 53.1201 47.6355C53.1201 47.1224 53.376 46.8338 53.888 46.8338H57.0238C57.6317 46.8338 58.0477 46.93 58.2717 47.1544C58.5277 47.3469 58.7197 47.7958 58.9116 48.4051L64.2873 69.6341L69.2789 48.4051C69.4389 47.7637 69.6309 47.3469 69.8868 47.1544C70.1428 46.962 70.5908 46.8338 71.1667 46.8338H73.7266C74.3345 46.8338 74.7505 46.93 75.0065 47.1544C75.2625 47.3469 75.4864 47.7958 75.6144 48.4051L80.6701 69.8907L86.2057 48.4051C86.3976 47.7637 86.6216 47.3469 86.8456 47.1544C87.1016 46.962 87.5176 46.8338 88.0935 46.8338H91.0693C91.5813 46.8338 91.8692 47.0903 91.8692 47.6355C91.8692 47.7958 91.8372 47.9561 91.8052 48.1486C91.7732 48.341 91.7093 48.5975 91.5813 48.9503L83.8698 73.7388C83.6778 74.3802 83.4539 74.7971 83.1979 74.9895C82.9419 75.1819 82.5259 75.3101 81.982 75.3101H79.2302C78.6222 75.3101 78.2062 75.2139 77.9503 74.9895C77.6943 74.765 77.4703 74.3481 77.3423 73.7067L72.3827 53.0229L67.455 73.6747C67.295 74.316 67.103 74.7329 66.8471 74.9574C66.5911 75.1819 66.1431 75.2781 65.5672 75.2781H62.8154ZM103.932 76.1439C102.268 76.1439 100.605 75.9515 99.0047 75.5667C97.4048 75.1819 96.1569 74.765 95.325 74.284C94.813 73.9954 94.4611 73.6747 94.3331 73.3861C94.2051 73.0975 94.1411 72.7768 94.1411 72.4882V70.8527C94.1411 70.1793 94.3971 69.8586 94.877 69.8586C95.069 69.8586 95.261 69.8907 95.453 69.9548C95.645 70.0189 95.9329 70.1472 96.2529 70.2755C97.3408 70.7565 98.5248 71.1413 99.7727 71.3979C101.053 71.6544 102.3 71.7827 103.58 71.7827C105.596 71.7827 107.164 71.4299 108.252 70.7244C109.34 70.0189 109.916 68.9928 109.916 67.678C109.916 66.7801 109.628 66.0425 109.052 65.4332C108.476 64.8239 107.388 64.2788 105.82 63.7657L101.181 62.3226C98.8447 61.585 97.1169 60.4947 96.0609 59.0517C95.005 57.6407 94.4611 56.0694 94.4611 54.4018C94.4611 53.055 94.749 51.8684 95.325 50.8423C95.9009 49.8161 96.6689 48.9182 97.6288 48.2127C98.5888 47.4751 99.6767 46.93 100.957 46.5452C102.236 46.1603 103.58 46 104.988 46C105.692 46 106.428 46.0321 107.132 46.1283C107.868 46.2245 108.54 46.3527 109.212 46.481C109.852 46.6414 110.46 46.8017 111.036 46.9941C111.612 47.1865 112.06 47.3789 112.38 47.5713C112.828 47.8279 113.148 48.0844 113.34 48.373C113.532 48.6296 113.628 48.9823 113.628 49.4313V50.9385C113.628 51.6119 113.372 51.9646 112.892 51.9646C112.636 51.9646 112.22 51.8364 111.676 51.5798C109.852 50.7461 107.804 50.3292 105.532 50.3292C103.708 50.3292 102.268 50.6178 101.277 51.2271C100.285 51.8364 99.7727 52.7663 99.7727 54.0811C99.7727 54.979 100.093 55.7487 100.733 56.358C101.373 56.9673 102.556 57.5765 104.252 58.1217L108.796 59.5648C111.1 60.3023 112.764 61.3285 113.756 62.6433C114.748 63.9581 115.228 65.4653 115.228 67.1328C115.228 68.5117 114.94 69.7624 114.396 70.8527C113.82 71.943 113.052 72.905 112.06 73.6747C111.068 74.4764 109.884 75.0536 108.508 75.4705C107.068 75.9194 105.564 76.1439 103.932 76.1439Z" fill="#252F3E"/>
<defs>
<radialGradient id="paint0_radial_4_144" cx="0" cy="0" r="1" gradientUnits="userSpaceOnUse" gradientTransform="translate(71 71) rotate(90) scale(64)">
<stop offset="0.0989583" stop-color="white"/>
<stop offset="1" stop-color="#90C0E9"/>
</radialGradient>
<linearGradient id="paint1_linear_4_144" x1="71" y1="7" x2="71" y2="135" gradientUnits="userSpaceOnUse">
<stop stop-color="#006CC8" stop-opacity="0.31"/>
<stop offset="1" stop-color="#006CC8" stop-opacity="0.38"/>
</linearGradient>
</defs>
</svg>
