<svg width="142" height="142" viewBox="0 0 142 142" fill="none" xmlns="http://www.w3.org/2000/svg">
<circle cx="71" cy="71" r="67.5" fill="url(#paint0_radial_4_45)" stroke="url(#paint1_linear_4_45)" stroke-width="7"/>
<path d="M41.0466 108.313L35 33H107.559L101.513 108.313L71.2796 117.35L41.0466 108.313Z" fill="#1172B8"/>
<path d="M101.513 39.025H71.2796V112.831L95.4659 105.3L101.513 39.025Z" fill="#33AADD"/>
<path d="M81.8611 76.6813H51.6281L50.1165 66.1375L74.3029 58.6063H50.1165L48.6048 49.5688H95.466L93.9543 60.1125L74.3029 67.6438H92.4427L89.4194 96.2625L71.2796 102.288L53.1398 96.2625L51.6281 81.2H60.698L62.2097 88.7313L71.2796 91.7438L80.3495 88.7313L81.8611 76.6813Z" fill="white"/>
<defs>
<radialGradient id="paint0_radial_4_45" cx="0" cy="0" r="1" gradientUnits="userSpaceOnUse" gradientTransform="translate(71 71) rotate(90) scale(64)">
<stop offset="0.0989583" stop-color="white"/>
<stop offset="1" stop-color="#90C0E9"/>
</radialGradient>
<linearGradient id="paint1_linear_4_45" x1="71" y1="7" x2="71" y2="135" gradientUnits="userSpaceOnUse">
<stop stop-color="#006CC8" stop-opacity="0.31"/>
<stop offset="1" stop-color="#006CC8" stop-opacity="0.38"/>
</linearGradient>
</defs>
</svg>
