<svg width="142" height="142" viewBox="0 0 142 142" fill="none" xmlns="http://www.w3.org/2000/svg">
<circle cx="71" cy="71" r="67.5" fill="url(#paint0_radial_4_113)" stroke="url(#paint1_linear_4_113)" stroke-width="7"/>
<path d="M112.929 61.4143C112.384 57.4652 110.204 54.0363 106.272 50.9385L103.998 49.4014L102.481 51.6952C100.539 54.6511 99.5677 58.7658 99.8756 62.7149C100.018 64.0865 100.468 66.5931 101.866 68.7451C100.468 69.5254 97.6962 70.5659 94.0007 70.495H23.4063L23.2642 71.3226C22.6009 75.2718 22.6009 87.6395 30.5368 97.1221C36.5776 104.335 45.6033 108 57.4006 108C82.9851 108 101.889 96.1053 110.773 74.4441C114.255 74.5151 121.765 74.4678 125.626 67.0188C125.721 66.8533 125.958 66.404 126.621 64.9851L127 64.2047L124.844 62.7386C122.475 61.2015 117.098 60.6103 112.929 61.4143ZM79.8581 35H69.1268V44.861H79.8581V35ZM79.8581 46.8474H69.1268V56.7085H79.8581V46.8474ZM67.1606 46.8474H56.4293V56.7085H67.1606V46.8474ZM54.4868 46.8474H43.7555V56.7085H54.4868V46.8474ZM41.7893 58.6948H31.058V68.5559H41.7893V58.6948ZM54.4868 58.6948H43.7555V68.5559H54.4868V58.6948ZM67.1606 58.6948H56.4293V68.5559H67.1606V58.6948ZM79.8581 58.6948H69.1268V68.5559H79.8581V58.6948ZM92.5556 58.6948H81.8243V68.5559H92.5556V58.6948Z" fill="#1D63ED"/>
<defs>
<radialGradient id="paint0_radial_4_113" cx="0" cy="0" r="1" gradientUnits="userSpaceOnUse" gradientTransform="translate(71 71) rotate(90) scale(64)">
<stop offset="0.0989583" stop-color="white"/>
<stop offset="1" stop-color="#90C0E9"/>
</radialGradient>
<linearGradient id="paint1_linear_4_113" x1="71" y1="7" x2="71" y2="135" gradientUnits="userSpaceOnUse">
<stop stop-color="#006CC8" stop-opacity="0.31"/>
<stop offset="1" stop-color="#006CC8" stop-opacity="0.38"/>
</linearGradient>
</defs>
</svg>
