<svg width="142" height="142" viewBox="0 0 142 142" fill="none" xmlns="http://www.w3.org/2000/svg">
<circle cx="71" cy="71" r="67.5" fill="url(#paint0_radial_4_137)" stroke="url(#paint1_linear_4_137)" stroke-width="7"/>
<path d="M99.15 32H43.85C37.3054 32 32 37.3054 32 43.85V99.15C32 105.695 37.3054 111 43.85 111H99.15C105.695 111 111 105.695 111 99.15V43.85C111 37.3054 105.695 32 99.15 32Z" fill="#F7DF1E"/>
<path d="M81.9922 89.0898C83.5352 91.7129 85.6953 93.5645 89.2441 93.5645C92.3301 93.5645 94.3359 92.0215 94.3359 89.8613C94.3359 87.3926 92.3301 86.4668 88.9355 84.9238L87.084 84.1523C81.6836 81.8379 78.1348 79.0605 78.1348 73.043C78.1348 67.4883 82.3008 63.168 88.9355 63.168C93.7188 63.168 97.1133 64.8652 99.4277 69.1855L93.7188 72.8887C92.4844 70.5742 91.0957 69.6484 88.9355 69.6484C86.7754 69.6484 85.3867 71.0371 85.3867 72.8887C85.3867 75.0488 86.7754 75.9746 90.0156 77.3633L91.8672 78.1348C98.1934 80.9121 101.742 83.5352 101.742 89.8613C101.742 96.4961 96.4961 100.199 89.3984 100.199C82.4551 100.199 77.9805 96.959 75.8203 92.6387L81.9922 89.0898ZM55.7617 89.707C56.9961 91.7129 57.9219 93.5645 60.5449 93.5645C63.0137 93.5645 64.5566 92.6387 64.5566 88.9355V63.3223H71.9629V88.627C71.9629 96.3418 67.4883 99.7363 60.8535 99.7363C54.8359 99.7363 51.4414 96.6504 49.7441 92.9473L55.7617 89.707Z" fill="black"/>
<defs>
<radialGradient id="paint0_radial_4_137" cx="0" cy="0" r="1" gradientUnits="userSpaceOnUse" gradientTransform="translate(71 71) rotate(90) scale(64)">
<stop offset="0.0989583" stop-color="white"/>
<stop offset="1" stop-color="#90C0E9"/>
</radialGradient>
<linearGradient id="paint1_linear_4_137" x1="71" y1="7" x2="71" y2="135" gradientUnits="userSpaceOnUse">
<stop stop-color="#006CC8" stop-opacity="0.31"/>
<stop offset="1" stop-color="#006CC8" stop-opacity="0.38"/>
</linearGradient>
</defs>
</svg>
