<svg width="142" height="142" viewBox="0 0 142 142" fill="none" xmlns="http://www.w3.org/2000/svg">
<circle cx="71" cy="71" r="67.5" fill="url(#paint0_radial_4_117)" stroke="url(#paint1_linear_4_117)" stroke-width="7"/>
<path d="M70.8311 25.008C69.9973 25.05 69.1804 25.2563 68.4283 25.6148L35.6393 41.2488C34.7907 41.6532 34.045 42.2417 33.4577 42.9705C32.8703 43.6993 32.4565 44.5497 32.2468 45.4585L24.1575 80.5763C23.9707 81.3854 23.9498 82.2234 24.0961 83.0407C24.2423 83.8579 24.5526 84.6379 25.0088 85.3343C25.1194 85.5046 25.2384 85.6694 25.3653 85.8281L48.0605 113.987C48.6479 114.715 49.3937 115.304 50.2423 115.708C51.091 116.112 52.0208 116.322 52.9626 116.322L89.358 116.313C90.2995 116.314 91.2291 116.105 92.0777 115.701C92.9264 115.298 93.6723 114.71 94.2602 113.983L116.947 85.8197C117.535 85.0907 117.949 84.24 118.159 83.3308C118.369 82.4216 118.369 81.4772 118.159 80.568L110.057 45.4502C109.847 44.5413 109.434 43.6909 108.846 42.9621C108.259 42.2333 107.513 41.6448 106.665 41.2404L73.8714 25.6148C72.9253 25.1638 71.8799 24.9551 70.8311 25.008Z" fill="#326CE5"/>
<path d="M71.156 36.9591C70.0722 36.9592 69.1933 37.9334 69.1935 39.1351C69.1935 39.1536 69.1973 39.1712 69.1977 39.1895C69.1961 39.3528 69.1882 39.5495 69.1935 39.6917C69.2193 40.3848 69.3707 40.9153 69.4619 41.5539C69.627 42.9206 69.7653 44.0536 69.6799 45.1067C69.5969 45.5038 69.3038 45.8669 69.0425 46.1194L68.9964 46.9479C67.8186 47.0453 66.633 47.2236 65.4487 47.4919C60.3528 48.6465 55.9653 51.2659 52.625 54.8026C52.4082 54.655 52.029 54.3835 51.9163 54.3004C51.5659 54.3476 51.2117 54.4555 50.7505 54.1874C49.8722 53.5975 49.0723 52.7831 48.1044 51.8021C47.6609 51.3329 47.3397 50.8861 46.8128 50.4338C46.6931 50.331 46.5105 50.1921 46.3767 50.0864C45.9647 49.7587 45.4788 49.5877 45.0096 49.5717C44.4063 49.5511 43.8255 49.7865 43.4454 50.2622C42.7697 51.1079 42.9861 52.4005 43.9277 53.1496C43.9372 53.1572 43.9474 53.1631 43.957 53.1705C44.0864 53.2752 44.2448 53.4093 44.3638 53.4969C44.9229 53.9089 45.4337 54.1198 45.9909 54.4469C47.1646 55.1702 48.1377 55.77 48.9095 56.4932C49.2109 56.8138 49.2636 57.3787 49.3037 57.623L49.9327 58.1838C46.5654 63.2407 45.007 69.487 45.928 75.8515L45.106 76.09C44.8894 76.3691 44.5833 76.8084 44.2631 76.9395C43.2533 77.2569 42.1168 77.3734 40.7448 77.517C40.1006 77.5704 39.5448 77.5385 38.8619 77.6676C38.7116 77.696 38.5022 77.7505 38.3377 77.789C38.332 77.7902 38.3267 77.7919 38.321 77.7931C38.312 77.7952 38.3002 77.7996 38.2916 77.8015C37.1348 78.0804 36.3917 79.1414 36.631 80.1868C36.8703 81.2324 38.0002 81.8683 39.1638 81.6179C39.1722 81.616 39.1844 81.6157 39.1932 81.6138C39.2063 81.6108 39.2179 81.6044 39.2309 81.6012C39.3932 81.5657 39.5965 81.5261 39.7384 81.4882C40.4098 81.3088 40.896 81.0453 41.4996 80.8145C42.7982 80.3497 43.8737 79.9615 44.9215 79.8102C45.3591 79.776 45.8202 80.0796 46.0496 80.2077L46.905 80.0613C48.8737 86.1518 52.9993 91.0747 58.2233 94.1636L57.8668 95.0173C57.9953 95.3488 58.137 95.7973 58.0413 96.1246C57.6604 97.1104 57.0079 98.1508 56.2649 99.3108C55.9052 99.8467 55.537 100.263 55.2124 100.876C55.1347 101.023 55.0357 101.248 54.9607 101.403C54.4563 102.48 54.8263 103.72 55.7953 104.186C56.7703 104.654 57.9805 104.16 58.5043 103.081C58.5051 103.08 58.5077 103.078 58.5084 103.077C58.509 103.076 58.5079 103.074 58.5084 103.073C58.583 102.92 58.6887 102.719 58.7517 102.575C59.0297 101.939 59.1222 101.394 59.3178 100.78C59.8371 99.478 60.1224 98.1122 60.8372 97.2612C61.0329 97.0282 61.352 96.9386 61.6829 96.8502L62.1274 96.0467C66.6817 97.7911 71.7794 98.2592 76.8718 97.1054C78.0334 96.8422 79.155 96.5016 80.2391 96.0928C80.3641 96.3139 80.5962 96.739 80.6585 96.846C80.9947 96.9552 81.3617 97.0115 81.6607 97.4528C82.1955 98.3646 82.5613 99.4432 83.0068 100.746C83.2024 101.361 83.2991 101.906 83.5772 102.541C83.6405 102.686 83.7457 102.89 83.8204 103.043C84.343 104.126 85.5571 104.622 86.5336 104.152C87.5024 103.687 87.8728 102.446 87.3681 101.37C87.2931 101.215 87.19 100.989 87.1123 100.842C86.7876 100.229 86.4195 99.8173 86.0597 99.2815C85.3167 98.1216 84.7004 97.158 84.3194 96.1723C84.1601 95.6639 84.3463 95.3477 84.4704 95.0173C84.3961 94.9323 84.237 94.4522 84.1433 94.2264C89.5723 91.0275 93.5768 85.9211 95.4573 80.0236C95.7113 80.0634 96.1526 80.1414 96.296 80.1701C96.5912 79.9758 96.8626 79.7223 97.3947 79.7642C98.4425 79.9154 99.518 80.3038 100.817 80.7685C101.42 80.9992 101.906 81.267 102.578 81.4464C102.72 81.4843 102.923 81.5197 103.085 81.5552C103.098 81.5584 103.11 81.5648 103.123 81.5677C103.132 81.5697 103.144 81.57 103.152 81.5719C104.316 81.8219 105.446 81.1864 105.685 80.1408C105.924 79.0953 105.181 78.0341 104.025 77.7555C103.856 77.7173 103.618 77.6525 103.454 77.6216C102.771 77.4925 102.216 77.5244 101.571 77.4709C100.199 77.3275 99.0629 77.2108 98.0531 76.8935C97.6414 76.7341 97.3485 76.2452 97.206 76.044L96.4134 75.8138C96.8244 72.8471 96.7136 69.7596 96.0025 66.6703C95.2848 63.5523 94.0164 60.7005 92.3248 58.188C92.5281 58.0035 92.912 57.6643 93.0209 57.5644C93.0527 57.213 93.0254 56.8446 93.3899 56.4555C94.1617 55.7323 95.1349 55.1326 96.3086 54.4092C96.8657 54.0821 97.3807 53.8713 97.9399 53.4593C98.0663 53.3661 98.239 53.2186 98.3718 53.112C99.3132 52.3626 99.53 51.07 98.8541 50.2245C98.1782 49.379 96.8684 49.2994 95.927 50.0488C95.793 50.1547 95.6112 50.2928 95.4909 50.3961C94.964 50.8484 94.6386 51.2952 94.1951 51.7645C93.2272 52.7455 92.4272 53.5639 91.549 54.1539C91.1684 54.375 90.611 54.2985 90.358 54.2837L89.6116 54.8151C85.3552 50.3612 79.56 47.5136 73.3199 46.9605C73.3024 46.6995 73.2796 46.2278 73.2737 46.0859C73.0183 45.8419 72.7097 45.6337 72.6321 45.1067C72.5468 44.0536 72.6893 42.9206 72.8544 41.5539C72.9455 40.9153 73.0969 40.3848 73.1228 39.6917C73.1287 39.5341 73.1192 39.3055 73.1186 39.1351C73.1185 37.9334 72.2399 36.959 71.156 36.9591ZM68.6986 52.1495L68.1158 62.4228L68.0738 62.4438C68.0347 63.3628 67.2767 64.0967 66.3461 64.0967C65.9649 64.0967 65.613 63.9746 65.3271 63.7661L65.3103 63.7745L56.8688 57.803C59.4632 55.2572 62.7817 53.3759 66.6061 52.5094C67.3047 52.3511 68.003 52.2336 68.6986 52.1495ZM73.6176 52.1495C78.0826 52.6975 82.2119 54.715 85.3762 57.8072L76.9892 63.741L76.9598 63.7285C76.2154 64.271 75.1666 64.1364 74.5863 63.4104C74.3486 63.113 74.2239 62.7633 74.2089 62.4103L74.2005 62.4061L73.6176 52.1495ZM53.8075 61.6403L61.5152 68.5199L61.5068 68.5618C62.2025 69.1653 62.3051 70.2126 61.7249 70.9387C61.4872 71.2361 61.169 71.4356 60.8275 71.5287L60.8191 71.5622L50.9392 74.4078C50.4363 69.8193 51.52 65.359 53.8075 61.6403ZM88.45 61.6445C89.5952 63.4968 90.4624 65.5656 90.9787 67.8085C91.4888 70.0245 91.6168 72.2365 91.4064 74.3743L81.4762 71.5203L81.4678 71.4785C80.5786 71.236 80.0321 70.3333 80.2391 69.428C80.324 69.0571 80.5212 68.7434 80.7885 68.5115L80.7843 68.4906L88.45 61.6445ZM69.5751 69.0514H72.7328L74.6953 71.4994L73.9908 74.5542L71.156 75.9142L68.3128 74.55L67.6083 71.4952L69.5751 69.0514ZM79.6982 77.4291C79.8324 77.4223 79.966 77.4344 80.0966 77.4584L80.1133 77.4374L90.3329 79.1615C88.8373 83.3547 85.9753 86.9872 82.1514 89.4182L78.1843 79.8562L78.1969 79.8395C77.8325 78.9945 78.1972 78.0036 79.0356 77.6007C79.2503 77.4975 79.4745 77.4404 79.6982 77.4291ZM62.5342 77.4709C63.3141 77.4818 64.0136 78.022 64.1948 78.8142C64.2797 79.1851 64.2384 79.5526 64.0984 79.8771L64.1277 79.9148L60.2026 89.3805C56.5329 87.0306 53.6099 83.5121 52.0463 79.195L62.1778 77.4793L62.1945 77.5002C62.3079 77.4794 62.4228 77.4694 62.5342 77.4709ZM71.0931 81.6179C71.3648 81.608 71.6405 81.6636 71.9025 81.7895C72.2459 81.9546 72.5113 82.2144 72.6783 82.526H72.716L77.7105 91.5314C77.0623 91.7483 76.3959 91.9336 75.7144 92.088C71.8947 92.9534 68.0871 92.6912 64.6393 91.5189L69.6212 82.5302H69.6296C69.9285 81.9726 70.4955 81.6399 71.0931 81.6179Z" fill="white" stroke="white" stroke-width="0.25"/>
<defs>
<radialGradient id="paint0_radial_4_117" cx="0" cy="0" r="1" gradientUnits="userSpaceOnUse" gradientTransform="translate(71 71) rotate(90) scale(64)">
<stop offset="0.0989583" stop-color="white"/>
<stop offset="1" stop-color="#90C0E9"/>
</radialGradient>
<linearGradient id="paint1_linear_4_117" x1="71" y1="7" x2="71" y2="135" gradientUnits="userSpaceOnUse">
<stop stop-color="#006CC8" stop-opacity="0.31"/>
<stop offset="1" stop-color="#006CC8" stop-opacity="0.38"/>
</linearGradient>
</defs>
</svg>
