<svg width="142" height="142" viewBox="0 0 142 142" fill="none" xmlns="http://www.w3.org/2000/svg">
<circle cx="71" cy="71" r="67.5" fill="url(#paint0_radial_4_27)" stroke="url(#paint1_linear_4_27)" stroke-width="7"/>
<path d="M70.9224 22.0008C66.9227 22.0195 63.1031 22.362 59.7422 22.9592C49.8414 24.7156 48.0438 28.3919 48.0438 35.1716V44.1256H71.4405V47.1102H48.0438H39.2632C32.4635 47.1102 26.5094 51.2142 24.6471 59.0214C22.4989 67.9703 22.4036 73.5546 24.6471 82.8987C26.3102 89.854 30.282 94.8099 37.0817 94.8099H45.126V84.0761C45.126 76.3216 51.8077 69.4814 59.7422 69.4814H83.1116C89.6169 69.4814 94.81 64.103 94.81 57.5428V35.1716C94.81 28.8046 89.461 24.0218 83.1116 22.9592C79.0924 22.2874 74.9222 21.9821 70.9224 22.0008ZM58.2697 29.2023C60.6864 29.2023 62.6599 31.2164 62.6599 33.693C62.6599 36.1607 60.6864 38.1563 58.2697 38.1563C55.8443 38.1563 53.8794 36.1607 53.8794 33.693C53.8794 31.2164 55.8443 29.2023 58.2697 29.2023Z" fill="url(#paint2_linear_4_27)"/>
<path d="M97.7278 47.1102V57.5428C97.7278 65.6311 90.8989 72.4387 83.1116 72.4387H59.7422C53.3409 72.4387 48.0438 77.9401 48.0438 84.3773V106.749C48.0438 113.115 53.5574 116.86 59.7422 118.687C67.1483 120.874 74.2503 121.269 83.1116 118.687C89.0019 116.975 94.81 113.528 94.81 106.749V97.7946H71.4405V94.8099H94.81H106.508C113.308 94.8099 115.842 90.0472 118.207 82.8987C120.649 75.5393 120.546 68.4621 118.207 59.0215C116.526 52.2242 113.317 47.1102 106.508 47.1102H97.7278ZM84.5842 103.764C87.0095 103.764 88.9745 105.759 88.9745 108.227C88.9745 110.704 87.0095 112.718 84.5842 112.718C82.1674 112.718 80.1939 110.704 80.1939 108.227C80.1939 105.759 82.1674 103.764 84.5842 103.764Z" fill="url(#paint3_linear_4_27)"/>
<defs>
<radialGradient id="paint0_radial_4_27" cx="0" cy="0" r="1" gradientUnits="userSpaceOnUse" gradientTransform="translate(71 71) rotate(90) scale(64)">
<stop offset="0.0989583" stop-color="white"/>
<stop offset="1" stop-color="#90C0E9"/>
</radialGradient>
<linearGradient id="paint1_linear_4_27" x1="71" y1="7" x2="71" y2="135" gradientUnits="userSpaceOnUse">
<stop stop-color="#006CC8" stop-opacity="0.31"/>
<stop offset="1" stop-color="#006CC8" stop-opacity="0.38"/>
</linearGradient>
<linearGradient id="paint2_linear_4_27" x1="23" y1="22" x2="77.1382" y2="67.9425" gradientUnits="userSpaceOnUse">
<stop stop-color="#5A9FD4"/>
<stop offset="1" stop-color="#306998"/>
</linearGradient>
<linearGradient id="paint3_linear_4_27" x1="84.0219" y1="107.474" x2="64.5602" y2="80.3154" gradientUnits="userSpaceOnUse">
<stop stop-color="#FFD43B"/>
<stop offset="1" stop-color="#FFE873"/>
</linearGradient>
</defs>
</svg>
