<svg width="142" height="142" viewBox="0 0 142 142" fill="none" xmlns="http://www.w3.org/2000/svg">
<circle cx="71" cy="71" r="67.5" fill="url(#paint0_radial_4_26)" stroke="url(#paint1_linear_4_26)" stroke-width="7"/>
<path d="M71.3976 24.4558C45.5186 24.4558 24.4558 45.5284 24.4558 71.3975C24.4558 97.2666 45.5285 118.339 71.3976 118.339C97.2667 118.339 118.339 97.2666 118.339 71.3975C118.339 45.5284 97.2667 24.4558 71.3976 24.4558ZM71.3281 28.6266C72.1307 28.6474 72.8934 28.982 73.4537 29.5589C74.014 30.1359 74.3274 30.9096 74.3271 31.715C74.3271 32.5341 74.0017 33.3197 73.4225 33.8989C72.8433 34.4781 72.0578 34.8034 71.2387 34.8034C70.4196 34.8034 69.634 34.4781 69.0549 33.8989C68.4757 33.3197 68.1503 32.5341 68.1503 31.715C68.1501 31.3018 68.2329 30.8928 68.3936 30.5122C68.5544 30.1315 68.7899 29.787 69.0862 29.499C69.3825 29.211 69.7336 28.9854 70.1187 28.8356C70.5038 28.6857 70.915 28.6147 71.3281 28.6266ZM78.3986 33.7111C83.8203 34.7266 88.956 36.9102 93.449 40.1101C97.942 43.31 101.684 47.4497 104.417 52.2415L100.772 60.464C100.147 61.8841 100.792 63.5524 102.202 64.188L109.213 67.2962C109.431 69.4877 109.457 71.694 109.293 73.8901H105.39C105.003 73.8901 104.844 74.1483 104.844 74.5257V76.3132C104.844 80.5237 102.47 81.4473 100.385 81.6757C98.3988 81.9041 96.2041 80.8415 95.926 79.63C94.7542 73.046 92.8079 71.6458 89.7294 69.2128C93.5527 66.7898 97.5249 63.2048 97.5249 58.4183C97.5249 53.2445 93.9797 49.9873 91.5665 48.3884C88.1703 46.1541 84.4165 45.7072 83.4036 45.7072H43.0856C48.6606 39.4792 56.1334 35.2628 64.3469 33.7111L69.1036 38.6962C70.1761 39.8184 71.9537 39.868 73.0758 38.7856L78.3986 33.7111ZM34.5056 56.5712C35.3091 56.5945 36.0718 56.9301 36.6318 57.5068C37.1918 58.0835 37.5049 58.8558 37.5046 59.6596C37.5046 60.4787 37.1792 61.2643 36.6 61.8435C36.0208 62.4226 35.2353 62.748 34.4162 62.748C33.5971 62.748 32.8115 62.4226 32.2324 61.8435C31.6532 61.2643 31.3278 60.4787 31.3278 59.6596C31.3276 59.2464 31.4104 58.8374 31.5711 58.4567C31.7319 58.0761 31.9674 57.7316 32.2637 57.4436C32.56 57.1556 32.9111 56.93 33.2962 56.7802C33.6813 56.6303 34.0925 56.5593 34.5056 56.5712ZM108.141 56.7103C108.944 56.7335 109.707 57.0691 110.267 57.6458C110.827 58.2225 111.14 58.9948 111.14 59.7987C111.14 60.6178 110.814 61.4033 110.235 61.9825C109.656 62.5617 108.87 62.8871 108.051 62.8871C107.232 62.8871 106.447 62.5617 105.867 61.9825C105.288 61.4033 104.963 60.6178 104.963 59.7987C104.963 59.3855 105.045 58.9764 105.206 58.5958C105.367 58.2151 105.602 57.8706 105.899 57.5826C106.195 57.2946 106.546 57.069 106.931 56.9192C107.316 56.7693 107.728 56.6983 108.141 56.7103ZM40.3249 57.2068H45.7072V81.4771H34.8432C33.5015 76.7654 33.0833 71.8389 33.6118 66.9685L40.2653 64.0092C41.6854 63.3737 42.3308 61.7153 41.6953 60.2952L40.3249 57.2068ZM62.7878 57.465H75.6081C76.2735 57.465 80.2854 58.2296 80.2854 61.2386C80.2854 63.7312 77.207 64.6249 74.6747 64.6249H62.7779L62.7878 57.465ZM62.7878 74.903H72.6091C73.5028 74.903 77.4056 75.1612 78.6469 80.1464C79.0342 81.6757 79.8981 86.6608 80.484 88.2596C81.0699 90.0471 83.4433 93.6221 85.9756 93.6221H102.004C100.929 95.0606 99.7546 96.4212 98.4881 97.6937L91.9638 96.2934C90.4444 95.9657 88.9449 96.9389 88.6172 98.4583L87.068 105.688C82.0864 107.944 76.6764 109.099 71.2075 109.074C65.7387 109.048 60.3398 107.842 55.3796 105.539L53.8304 98.3093C53.5027 96.79 52.0131 95.8168 50.4938 96.1445L44.1084 97.5149C42.9235 96.2926 41.822 94.9921 40.8115 93.6221H71.8643C72.2119 93.6221 72.4502 93.5625 72.4502 93.2348V82.2516C72.4502 81.9339 72.2119 81.8643 71.8643 81.8643H62.7779L62.7878 74.903ZM48.458 100.057C49.2615 100.08 50.0243 100.416 50.5843 100.993C51.1443 101.569 51.4574 102.342 51.457 103.146C51.457 103.965 51.1316 104.75 50.5524 105.329C49.9733 105.909 49.1877 106.234 48.3686 106.234C47.5495 106.234 46.764 105.909 46.1848 105.329C45.6056 104.75 45.2802 103.965 45.2802 103.146C45.28 102.732 45.3628 102.323 45.5236 101.943C45.6843 101.562 45.9198 101.217 46.2162 100.929C46.5125 100.641 46.8636 100.416 47.2486 100.266C47.6337 100.116 48.045 100.045 48.458 100.057ZM94.1882 100.196C94.9917 100.219 95.7545 100.555 96.3145 101.132C96.8745 101.708 97.1876 102.481 97.1872 103.285C97.1872 104.104 96.8618 104.889 96.2827 105.468C95.7035 106.048 94.9179 106.373 94.0988 106.373C93.2797 106.373 92.4942 106.048 91.915 105.468C91.3358 104.889 91.0104 104.104 91.0104 103.285C91.0103 102.871 91.093 102.462 91.2538 102.082C91.4145 101.701 91.65 101.356 91.9464 101.069C92.2427 100.781 92.5938 100.555 92.9789 100.405C93.3639 100.255 93.7752 100.184 94.1882 100.196Z" fill="black"/>
<path fill-rule="evenodd" clip-rule="evenodd" d="M115.718 71.3976C115.718 83.152 111.048 94.425 102.737 102.737C94.425 111.048 83.152 115.718 71.3976 115.718C59.6432 115.718 48.3702 111.048 40.0585 102.737C31.7469 94.425 27.0775 83.152 27.0775 71.3976C27.0775 59.6432 31.7469 48.3702 40.0585 40.0585C48.3702 31.7469 59.6432 27.0775 71.3976 27.0775C83.152 27.0775 94.425 31.7469 102.737 40.0585C111.048 48.3702 115.718 59.6432 115.718 71.3976ZM114.883 67.1175L121.795 71.3976L114.883 75.6776L120.822 81.2288L113.215 84.0789L117.962 90.6827L109.928 91.9935L113.305 99.4017L105.171 99.1138L107.038 107.038L99.1138 105.171L99.4017 113.305L91.9935 109.928L90.6827 117.962L84.0789 113.215L81.2288 120.822L75.6776 114.883L71.3976 121.795L67.1175 114.883L61.5663 120.822L58.7163 113.215L52.1124 117.962L50.8016 109.928L43.3934 113.305L43.6814 105.171L35.7568 107.038L37.6238 99.1138L29.4906 99.4017L32.867 91.9935L24.8332 90.6827L29.58 84.0789L21.9732 81.2288L27.9117 75.6776L21 71.3976L27.9117 67.1175L21.9732 61.5663L29.58 58.7163L24.8332 52.1124L32.867 50.8016L29.4906 43.3934L37.6238 43.6814L35.7568 35.7568L43.6814 37.6237L43.3934 29.4906L50.8016 32.867L52.1124 24.8332L58.7163 29.58L61.5663 21.9732L67.1175 27.9117L71.3976 21L75.6776 27.9117L81.2288 21.9732L84.0789 29.58L90.6827 24.8332L91.9935 32.867L99.4017 29.4906L99.1138 37.6237L107.038 35.7568L105.171 43.6814L113.305 43.3934L109.928 50.8016L117.962 52.1124L113.215 58.7163L120.822 61.5663L114.883 67.1175Z" fill="black" stroke="black" stroke-width="3" stroke-linecap="round" stroke-linejoin="round"/>
<defs>
<radialGradient id="paint0_radial_4_26" cx="0" cy="0" r="1" gradientUnits="userSpaceOnUse" gradientTransform="translate(71 71) rotate(90) scale(64)">
<stop offset="0.0989583" stop-color="white"/>
<stop offset="1" stop-color="#90C0E9"/>
</radialGradient>
<linearGradient id="paint1_linear_4_26" x1="71" y1="7" x2="71" y2="135" gradientUnits="userSpaceOnUse">
<stop stop-color="#006CC8" stop-opacity="0.31"/>
<stop offset="1" stop-color="#006CC8" stop-opacity="0.38"/>
</linearGradient>
</defs>
</svg>
