<svg width="142" height="142" viewBox="0 0 142 142" fill="none" xmlns="http://www.w3.org/2000/svg">
<circle cx="71" cy="71" r="67.5" fill="url(#paint0_radial_4_140)" stroke="url(#paint1_linear_4_140)" stroke-width="7"/>
<path fill-rule="evenodd" clip-rule="evenodd" d="M55.391 72.6925C54.9706 74.0491 54.0582 75.2544 52.7146 76.025L32.8124 87.472C30.0014 89.0819 26.4204 88.1274 24.8071 85.343C23.1836 82.5429 24.1392 78.9807 26.9478 77.366L38.0704 70.9801L26.9478 64.5774C24.1392 62.9651 23.1787 59.4022 24.8071 56.6124C26.4204 53.8207 30.0014 52.8632 32.8124 54.4731L52.7146 65.9129C54.1141 66.7166 55.0492 67.9913 55.4421 69.4167C55.5742 69.8749 55.6331 70.3331 55.6559 70.7938C55.6715 71.4281 55.5898 72.0708 55.391 72.6925ZM60.7914 83.4135C63.8222 83.6306 66.2151 86.1546 66.2151 89.2254V112.113C66.2151 115.34 63.5849 117.953 60.3559 117.953C57.1112 117.953 54.4913 115.34 54.4913 112.113V99.3115L43.3308 105.717C40.5324 107.34 36.9538 106.38 35.3279 103.593C33.7122 100.801 34.6678 97.2205 37.4716 95.6082L57.3893 84.1757C58.4597 83.554 59.6471 83.3159 60.7914 83.4135ZM81.1909 58.54C78.1528 58.3169 75.7647 55.7888 75.7647 52.7203V29.8299C75.7647 26.6132 78.3799 24 81.6269 24C84.871 24 87.4916 26.6132 87.4916 29.8299V42.639L98.6442 36.223C101.448 34.6107 105.028 35.5676 106.645 38.355C108.257 41.1576 107.307 44.7222 104.501 46.3345L84.5857 57.7773C83.5153 58.3911 82.3303 58.6317 81.1909 58.54ZM37.4716 46.3345C34.6678 44.7222 33.7122 41.1576 35.3279 38.355C36.9538 35.5676 40.5324 34.6107 43.3308 36.223L54.4913 42.639V29.8299C54.4913 26.6132 57.1112 24 60.3559 24C63.5849 24 66.2151 26.6132 66.2151 29.8299V52.7203C66.2151 55.7888 63.8222 58.3169 60.7914 58.54C59.6471 58.6317 58.4597 58.3911 57.3893 57.7773L37.4716 46.3345ZM73.242 81.4455C73.0048 81.6885 72.5483 81.8857 72.2017 81.8857H69.7679C69.434 81.8857 68.9703 81.6885 68.7282 81.4455L60.455 73.2171C60.2183 72.9843 60.0267 72.5182 60.0267 72.1908V69.7621C60.0267 69.4269 60.2183 68.9614 60.455 68.7257L68.7282 60.4948C68.9703 60.2548 69.434 60.0625 69.7679 60.0625H72.2017C72.5411 60.0625 73.0048 60.2548 73.242 60.4948L81.52 68.7257C81.7567 68.9614 81.9477 69.4269 81.9477 69.7621V72.1908C81.9477 72.5182 81.7567 72.9843 81.52 73.2171L73.242 81.4455ZM74.9034 70.9319C74.9034 70.599 74.7022 70.136 74.4649 69.89L72.0666 67.5149C71.8323 67.2798 71.3662 67.085 71.0323 67.085H70.938C70.604 67.085 70.1403 67.2798 69.9079 67.5149L67.5101 69.89C67.2705 70.136 67.0867 70.599 67.0867 70.9319V71.0265C67.0867 71.3539 67.2705 71.8122 67.5101 72.0528L69.9079 74.4326C70.1427 74.6684 70.604 74.8625 70.938 74.8625H71.0323C71.3662 74.8625 71.8323 74.6684 72.0666 74.4326L74.4649 72.0528C74.7022 71.8122 74.9034 71.3539 74.9034 71.0265V70.9319ZM104.501 95.6082C107.307 97.2205 108.257 100.801 106.645 103.593C105.028 106.38 101.445 107.34 98.6442 105.717L87.4916 99.3115V112.113C87.4916 115.34 84.871 117.953 81.6269 117.953C78.3799 117.953 75.7647 115.34 75.7647 112.113V89.2254C75.7647 86.1546 78.1528 83.6306 81.1909 83.4135C82.3303 83.3159 83.5153 83.554 84.5857 84.1757L104.501 95.6082ZM103.907 70.9801L115.03 77.366C117.838 78.9807 118.799 82.5429 117.176 85.343C115.555 88.1274 111.969 89.0819 109.17 87.472L89.2526 76.025C87.9222 75.2544 87.002 74.0491 86.5918 72.6925C86.3978 72.0708 86.3059 71.4281 86.3293 70.7938C86.3395 70.3331 86.408 69.8749 86.5353 69.4167C86.933 67.9913 87.8688 66.7166 89.2526 65.9129L109.17 54.4731C111.969 52.8632 115.555 53.8207 117.176 56.6124C118.799 59.4022 117.838 62.9651 115.03 64.5774L103.907 70.9801Z" fill="#29B5E8"/>
<defs>
<radialGradient id="paint0_radial_4_140" cx="0" cy="0" r="1" gradientUnits="userSpaceOnUse" gradientTransform="translate(71 71) rotate(90) scale(64)">
<stop offset="0.0989583" stop-color="white"/>
<stop offset="1" stop-color="#90C0E9"/>
</radialGradient>
<linearGradient id="paint1_linear_4_140" x1="71" y1="7" x2="71" y2="135" gradientUnits="userSpaceOnUse">
<stop stop-color="#006CC8" stop-opacity="0.31"/>
<stop offset="1" stop-color="#006CC8" stop-opacity="0.38"/>
</linearGradient>
</defs>
</svg>
