<svg width="142" height="142" viewBox="0 0 142 142" fill="none" xmlns="http://www.w3.org/2000/svg">
<circle cx="71" cy="71" r="67.5" fill="url(#paint0_radial_4_121)" stroke="url(#paint1_linear_4_121)" stroke-width="7"/>
<path d="M104.991 36.4271C96.3242 23.9203 79.0703 20.2559 66.6667 28.1423L44.8012 42.1627C38.8379 45.9067 34.7034 52.0406 33.5107 58.9711C32.4771 64.7864 33.3517 70.761 36.1346 75.9389C34.2263 78.8067 32.9541 81.9932 32.3976 85.3389C31.1254 92.4288 32.7951 99.7576 36.9297 105.573C45.6758 118.08 62.8502 121.744 75.2538 113.858L97.1193 99.9169C103.083 96.1728 107.217 90.0389 108.41 83.1084C109.443 77.2932 108.569 71.3186 105.786 66.1406C107.694 63.2728 108.966 60.0864 109.523 56.7406C110.875 49.5711 109.205 42.2423 104.991 36.4271Z" fill="#FF3E00"/>
<path d="M64.5199 106.768C57.4434 108.6 50.0489 105.812 45.9144 99.8373C43.37 96.3322 42.4159 91.9508 43.1315 87.6491C43.2905 86.9322 43.4495 86.2949 43.6086 85.578L44.0061 84.3034L45.1193 85.1C47.7431 87.0118 50.6055 88.4457 53.7064 89.4017L54.5015 89.6407L54.422 90.4373C54.3425 91.5525 54.6605 92.7474 55.2966 93.7034C56.5688 95.5356 58.7951 96.4118 60.9419 95.8542C61.419 95.6949 61.896 95.5356 62.2936 95.2966L84.0795 81.3559C85.1927 80.639 85.9083 79.6034 86.1468 78.3288C86.3853 77.0542 86.0673 75.7 85.3517 74.6644C84.0795 72.8322 81.8532 72.0356 79.7064 72.5932C79.2294 72.7525 78.7523 72.9118 78.3547 73.1508L70.0061 78.4881C68.6544 79.3644 67.1437 80.0017 65.5535 80.4C58.4771 82.2322 51.0826 79.4441 46.948 73.4695C44.4832 69.9644 43.4495 65.583 44.2446 61.2813C44.9602 57.139 47.5046 53.3949 51.0826 51.1644L72.948 37.2237C74.2997 36.3474 75.8104 35.7102 77.4006 35.2322C84.4771 33.4 91.8716 36.1881 96.0061 42.1627C98.5505 45.6678 99.5046 50.0491 98.789 54.3508C98.63 55.0678 98.471 55.7051 98.2324 56.422L97.8349 57.6966L96.7217 56.9C94.0979 54.9881 91.2355 53.5542 88.1346 52.5983L87.3394 52.3593L87.419 51.5627C87.4985 50.4474 87.1804 49.2525 86.5443 48.2966C85.2722 46.4644 83.0459 45.6678 80.8991 46.2254C80.422 46.3847 79.945 46.5441 79.5474 46.783L57.7615 60.7237C56.6483 61.4407 55.9327 62.4763 55.6942 63.7508C55.4557 65.0254 55.7737 66.3796 56.4893 67.4152C57.7615 69.2474 59.9878 70.0441 62.1346 69.4864C62.6116 69.3271 63.0887 69.1678 63.4862 68.9288L71.8349 63.5915C73.1865 62.7152 74.6972 62.078 76.2875 61.6C83.3639 59.7678 90.7584 62.5559 94.893 68.5305C97.4373 72.0356 98.3914 76.4169 97.6758 80.7186C96.9602 84.861 94.4159 88.6051 90.8379 90.8356L68.9725 104.776C67.6208 105.653 66.1101 106.29 64.5199 106.768Z" fill="white"/>
<defs>
<radialGradient id="paint0_radial_4_121" cx="0" cy="0" r="1" gradientUnits="userSpaceOnUse" gradientTransform="translate(71 71) rotate(90) scale(64)">
<stop offset="0.0989583" stop-color="white"/>
<stop offset="1" stop-color="#90C0E9"/>
</radialGradient>
<linearGradient id="paint1_linear_4_121" x1="71" y1="7" x2="71" y2="135" gradientUnits="userSpaceOnUse">
<stop stop-color="#006CC8" stop-opacity="0.31"/>
<stop offset="1" stop-color="#006CC8" stop-opacity="0.38"/>
</linearGradient>
</defs>
</svg>
